<?xml version="1.0" encoding="utf-8"?>
<!-- Generator: Adobe Illustrator 22.1.0, SVG Export Plug-In . SVG Version: 6.00 Build 0)  -->
<svg version="1.1" id="Layer_1" xmlns="http://www.w3.org/2000/svg" xmlns:xlink="http://www.w3.org/1999/xlink" x="0px" y="0px"
	 viewBox="0 0 1209 768" style="enable-background:new 0 0 1209 768;" xml:space="preserve">
<style type="text/css">
	.st0{fill:#1F80AA;}
	.st1{fill:#39B54A;}
	.st2{fill:#FCC94A;}
</style>
<g>
	<g>
		<g>
			<path class="st0" d="M723.3,240.6c-21-16.6-40.4-25-57.7-25c-8.7,0-16.2,2.1-22.7,5.5c-16.3,8.6-25.5,25-29.6,34
				c-7.1-8.5-22.5-25.5-39.5-36c-0.1-0.1-0.2-0.1-0.2-0.2c-2.3-1.4-4.9-2.1-7.7-2.1c-24.6,0-64.8,57.3-74.1,71
				c-2-5.2-3.6-10.3-4.8-15.2c-1.5-6.2-2.3-12.1-2.3-17.6c0-66.1,53.6-119.7,119.7-119.7C665.7,135.3,716.2,181.3,723.3,240.6z"/>
		</g>
		<path class="st1" d="M724.2,255c0,9.4-2.4,20.1-6.6,31.4C692.6,354.9,604.5,449,604.5,449s-83.2-89-110.9-156.9
			c0,0,55.4-83.8,78.1-69.9c22.7,13.9,42.8,40.3,42.8,40.3s26-84.8,109.3-16.7C724.1,248.8,724.2,251.9,724.2,255z"/>
		<path class="st2" d="M643,221.1c-16.3,8.6-25.5,25-29.6,34c-7.1-8.5-22.5-25.5-39.5-36c3.7-15.6,17.7-27.2,34.3-27.2
			C625.7,192,640.1,204.5,643,221.1z"/>
	</g>
	<g>
		<g>
			<path class="st0" d="M472.3,576.4h-14.5v54.4h-26.1V500.5h26.1v53.3h11.4l34.6-53.3h32l-43.9,60.7l47.4,69.6h-31.9L472.3,576.4z"
				/>
		</g>
		<g>
			<path class="st0" d="M604.8,630.8c-1-2.2-1.8-4.5-2.5-7c-0.7-2.4-1.2-5-1.5-7.5c-2.7,4.7-6.2,8.6-10.6,11.7
				c-4.4,3.1-9.6,4.7-15.7,4.7c-10.1,0-18-2.6-23.5-7.8c-5.5-5.2-8.2-12.3-8.2-21.3c0-9.5,3.7-16.8,11-22.1c7.3-5.2,18-7.8,32-7.8
				h14.6v-7.7c0-4.7-1.2-8.3-3.7-10.8c-2.4-2.6-6.1-3.8-10.8-3.8c-4.2,0-7.5,1-9.8,3.1c-2.3,2.1-3.4,4.9-3.4,8.5l-25.2-0.1l-0.1-0.5
				c-0.4-8.2,3.1-15.2,10.7-21.2c7.5-5.9,17.4-8.9,29.6-8.9c11.6,0,21,2.9,28.2,8.8c7.2,5.9,10.8,14.2,10.8,25.1v40
				c0,4.5,0.3,8.8,1,12.8c0.7,4,1.8,8,3.3,11.9H604.8z M580.9,613.4c4.6,0,8.7-1.1,12.3-3.4c3.6-2.3,6-4.9,7.3-7.9v-13.7h-14.6
				c-5.5,0-9.8,1.4-12.6,4.2c-2.9,2.8-4.3,6.1-4.3,10.1c0,3.2,1.1,5.8,3.2,7.8C574.2,612.4,577.2,613.4,580.9,613.4z"/>
		</g>
		<g>
			<path class="st0" d="M671.9,546.2c3-4.4,6.8-7.9,11.2-10.3c4.4-2.5,9.3-3.7,14.7-3.7c10.1,0,18,3.4,23.8,10.1
				c5.8,6.7,8.6,17.1,8.6,31.1v57.5H704v-57.8c0-7.5-1.3-12.9-4-16c-2.7-3.1-6.6-4.7-11.9-4.7c-3.6,0-6.7,0.6-9.5,1.9
				c-2.7,1.3-5,3.1-6.8,5.4v71.1h-26.1V491.2h26.1V546.2z"/>
		</g>
		<g>
			<path class="st0" d="M777.4,510.8h-26.1v-19.6h26.1V510.8z M777.4,630.8h-26.1V534h26.1V630.8z"/>
		</g>
	</g>
</g>
</svg>
